<?xml version="1.0" encoding="utf-8"?>
<!-- Generator: Adobe Illustrator 16.0.0, SVG Export Plug-In . SVG Version: 6.00 Build 0)  -->
<!DOCTYPE svg PUBLIC "-//W3C//DTD SVG 1.1//EN" "http://www.w3.org/Graphics/SVG/1.1/DTD/svg11.dtd">
<svg version="1.1" id="Capa_1" xmlns="http://www.w3.org/2000/svg" xmlns:xlink="http://www.w3.org/1999/xlink" x="0px" y="0px"
	 width="2000px" height="2000px" viewBox="0 0 2000 2000" enable-background="new 0 0 2000 2000" xml:space="preserve">
<g>
	<g>
		<path fill="#333333" d="M1682.521,917.12c-10.852-90.3-39.209-175.205-81.58-251.243
			c-96.91-173.934-267.115-301.403-468.873-340.66c-42.746-8.32-86.891-12.725-132.068-12.725
			c-45.178,0-89.323,4.405-132.068,12.725c-201.758,39.257-371.963,166.726-468.874,340.66
			c-42.37,76.038-70.728,160.942-81.58,251.243c-3.264,27.173-4.986,54.824-4.986,82.88c0,180.877,69.884,345.406,184.08,468.15
			c60.147,64.651,132.584,117.688,213.609,155.412c88.078,41.006,186.264,63.945,289.819,63.945
			c103.556,0,201.74-22.939,289.818-63.945c81.025-37.724,153.463-90.761,213.609-155.412
			c114.197-122.744,184.08-287.273,184.08-468.15C1687.508,971.944,1685.785,944.293,1682.521,917.12z M1450.648,665.877h-207.895
			l-64.341-198.024C1288.188,504.754,1382.893,574.729,1450.648,665.877z M821.587,467.853l-64.341,198.024H549.351
			C617.107,574.729,711.813,504.754,821.587,467.853z M542.96,1325.373c-64.613-90.499-103.013-200.914-104.12-320.08
			l168.375,122.33L542.96,1325.373z M1000,1561.232c-58.67,0-115.26-9.069-168.457-25.843L1000,1412.998l168.457,122.392
			C1115.26,1552.163,1058.67,1561.232,1000,1561.232z M1298.272,1475.195L1000,1258.49l-298.272,216.705
			c-21.51-13.553-42.043-28.517-61.465-44.773l113.899-350.543L455.705,863.036c6.227-24.74,14.107-48.834,23.504-72.158h368.854
			l113.981-350.793c12.548-0.844,25.196-1.313,37.956-1.313s25.408,0.469,37.957,1.313l113.98,350.793h368.854
			c9.396,23.323,17.277,47.417,23.504,72.158l-298.457,216.843l113.899,350.543
			C1340.315,1446.679,1319.783,1461.643,1298.272,1475.195z M1457.039,1325.373l-64.255-197.75l168.375-122.33
			C1560.053,1124.459,1521.652,1234.874,1457.039,1325.373z M1000,0C447.712,0,0,447.716,0,1000s447.712,1000,1000,1000
			s1000-447.717,1000-1000S1552.288,0,1000,0z M1000,1874.999c-482.478,0-874.999-392.521-874.999-874.999
			S517.522,124.997,1000,124.997S1874.999,517.522,1874.999,1000S1482.478,1874.999,1000,1874.999z M1000,937.498
			c-34.516,0-62.499,27.982-62.499,62.502c0,34.52,27.983,62.503,62.499,62.503s62.498-27.983,62.498-62.503
			C1062.498,965.48,1034.516,937.498,1000,937.498z"/>
	</g>
</g>
</svg>
