<?xml version="1.0" encoding="utf-8"?>
<!-- Generator: Adobe Illustrator 16.0.0, SVG Export Plug-In . SVG Version: 6.00 Build 0)  -->
<!DOCTYPE svg PUBLIC "-//W3C//DTD SVG 1.1//EN" "http://www.w3.org/Graphics/SVG/1.1/DTD/svg11.dtd">
<svg version="1.1" id="Capa_1" xmlns="http://www.w3.org/2000/svg" xmlns:xlink="http://www.w3.org/1999/xlink" x="0px" y="0px"
	 width="2000px" height="2000px" viewBox="0 0 2000 2000" enable-background="new 0 0 2000 2000" xml:space="preserve">
<g>
	<g>
		<path fill="#333333" d="M449.187,963.908c-76.045,0-137.707,61.651-137.707,137.707c0,76.057,61.662,137.709,137.707,137.709
			c76.051,0,137.71-61.652,137.71-137.709C586.894,1025.561,525.237,963.908,449.187,963.908z M1550.812,1239.324
			c76.045,0,137.707-61.651,137.707-137.709c0-76.055-61.661-137.707-137.707-137.707c-76.055,0-137.707,61.651-137.707,137.707
			C1413.105,1177.672,1474.758,1239.324,1550.812,1239.324z M1961.497,825.488l-137.395-20.38l-3.956-47.753h74.927V619.657h-86.341
			L1757.365,0H242.639l-51.372,619.656h-86.335v137.699h74.921l-3.956,47.752L38.511,825.489h-2.438v895.79h137.708V2000h413.104
			v-278.721h826.23V2000h413.104v-278.721h137.71V825.488H1961.497z M368.918,137.698h493.377v137.386h275.412V137.698h493.373
			l53.615,646.732l-65.609-9.731c0.371-5.735,0.569-11.513,0.569-17.344c0-152.101-123.295-275.406-275.396-275.406
			c-130.35,0-239.471,90.591-268.039,212.221L1000,682.865L315.303,784.43L368.918,137.698z M1481.882,754.348l-268.499-39.831
			c18.019-55.068,69.783-94.866,130.877-94.866C1419.299,619.652,1480.274,679.692,1481.882,754.348z M449.187,1858.981H311.479
			v-137.704h137.707V1858.981z M1688.52,1858.981h-137.707v-137.704h137.707V1858.981z M1826.218,1583.579H173.781v-137.71h1652.437
			V1583.579L1826.218,1583.579z M1826.218,1308.173H173.781v-363.63L1000,823.847l826.218,120.696V1308.173L1826.218,1308.173z"/>
	</g>
</g>
</svg>
